<mxfile host="Electron" agent="Mozilla/5.0 (Macintosh; Intel Mac OS X 10_15_7) AppleWebKit/537.36 (KHTML, like Gecko) draw.io/26.1.1 Chrome/132.0.6834.210 Electron/34.3.3 Safari/537.36" version="26.1.1">
  <diagram name="Page-1" id="H8-hHDZPfPD6bcdBQAWY">
    <mxGraphModel dx="1114" dy="878" grid="1" gridSize="10" guides="1" tooltips="1" connect="1" arrows="1" fold="1" page="1" pageScale="1" pageWidth="827" pageHeight="1169" math="0" shadow="0">
      <root>
        <mxCell id="0" />
        <mxCell id="1" parent="0" />
        <mxCell id="oSLtp4oz6k_tKWfmlmbr-9" style="edgeStyle=orthogonalEdgeStyle;rounded=0;orthogonalLoop=1;jettySize=auto;html=1;entryX=0;entryY=0.5;entryDx=0;entryDy=0;endArrow=block;endFill=1;" edge="1" parent="1" source="oSLtp4oz6k_tKWfmlmbr-1" target="oSLtp4oz6k_tKWfmlmbr-4">
          <mxGeometry relative="1" as="geometry" />
        </mxCell>
        <mxCell id="oSLtp4oz6k_tKWfmlmbr-1" value="실행 완료 중" style="rounded=0;whiteSpace=wrap;html=1;" vertex="1" parent="1">
          <mxGeometry x="330" y="60" width="80" height="40" as="geometry" />
        </mxCell>
        <mxCell id="oSLtp4oz6k_tKWfmlmbr-7" style="edgeStyle=orthogonalEdgeStyle;rounded=0;orthogonalLoop=1;jettySize=auto;html=1;entryX=0;entryY=0.5;entryDx=0;entryDy=0;endArrow=block;endFill=1;" edge="1" parent="1" source="oSLtp4oz6k_tKWfmlmbr-2" target="oSLtp4oz6k_tKWfmlmbr-3">
          <mxGeometry relative="1" as="geometry" />
        </mxCell>
        <mxCell id="oSLtp4oz6k_tKWfmlmbr-11" style="edgeStyle=orthogonalEdgeStyle;rounded=0;orthogonalLoop=1;jettySize=auto;html=1;entryX=0;entryY=0.5;entryDx=0;entryDy=0;endArrow=block;endFill=1;" edge="1" parent="1" source="oSLtp4oz6k_tKWfmlmbr-2" target="oSLtp4oz6k_tKWfmlmbr-5">
          <mxGeometry relative="1" as="geometry">
            <Array as="points">
              <mxPoint x="110" y="160" />
            </Array>
          </mxGeometry>
        </mxCell>
        <mxCell id="oSLtp4oz6k_tKWfmlmbr-2" value="생성" style="rounded=0;whiteSpace=wrap;html=1;" vertex="1" parent="1">
          <mxGeometry x="70" y="60" width="80" height="40" as="geometry" />
        </mxCell>
        <mxCell id="oSLtp4oz6k_tKWfmlmbr-8" style="edgeStyle=orthogonalEdgeStyle;rounded=0;orthogonalLoop=1;jettySize=auto;html=1;entryX=0;entryY=0.5;entryDx=0;entryDy=0;endArrow=block;endFill=1;" edge="1" parent="1" source="oSLtp4oz6k_tKWfmlmbr-3" target="oSLtp4oz6k_tKWfmlmbr-1">
          <mxGeometry relative="1" as="geometry" />
        </mxCell>
        <mxCell id="oSLtp4oz6k_tKWfmlmbr-10" style="edgeStyle=orthogonalEdgeStyle;rounded=0;orthogonalLoop=1;jettySize=auto;html=1;entryX=0.5;entryY=0;entryDx=0;entryDy=0;endArrow=block;endFill=1;" edge="1" parent="1" source="oSLtp4oz6k_tKWfmlmbr-3" target="oSLtp4oz6k_tKWfmlmbr-5">
          <mxGeometry relative="1" as="geometry" />
        </mxCell>
        <mxCell id="oSLtp4oz6k_tKWfmlmbr-3" value="실행 중" style="rounded=0;whiteSpace=wrap;html=1;" vertex="1" parent="1">
          <mxGeometry x="200" y="60" width="80" height="40" as="geometry" />
        </mxCell>
        <mxCell id="oSLtp4oz6k_tKWfmlmbr-4" value="실행 완료" style="rounded=0;whiteSpace=wrap;html=1;" vertex="1" parent="1">
          <mxGeometry x="450" y="60" width="80" height="40" as="geometry" />
        </mxCell>
        <mxCell id="oSLtp4oz6k_tKWfmlmbr-12" style="edgeStyle=orthogonalEdgeStyle;rounded=0;orthogonalLoop=1;jettySize=auto;html=1;entryX=0;entryY=0.5;entryDx=0;entryDy=0;endArrow=block;endFill=1;" edge="1" parent="1" source="oSLtp4oz6k_tKWfmlmbr-5" target="oSLtp4oz6k_tKWfmlmbr-6">
          <mxGeometry relative="1" as="geometry" />
        </mxCell>
        <mxCell id="oSLtp4oz6k_tKWfmlmbr-5" value="취소 중" style="rounded=0;whiteSpace=wrap;html=1;" vertex="1" parent="1">
          <mxGeometry x="200" y="140" width="80" height="40" as="geometry" />
        </mxCell>
        <mxCell id="oSLtp4oz6k_tKWfmlmbr-6" value="취소 완료" style="rounded=0;whiteSpace=wrap;html=1;" vertex="1" parent="1">
          <mxGeometry x="450" y="140" width="80" height="40" as="geometry" />
        </mxCell>
      </root>
    </mxGraphModel>
  </diagram>
</mxfile>
